<svg width="647" height="90" viewBox="0 0 647 90" fill="none" xmlns="http://www.w3.org/2000/svg">
<path d="M140.4 74.4L135.75 68.03L140.38 74.43L141.58 76L140.41 74.4H140.4Z" fill="white"/>
<path d="M215.34 22.6299V76.2799H201.39V68.8699C197.49 74.3299 192.22 77.4599 184.81 77.4599C173.01 77.4599 165.69 69.3599 165.69 56.2899V22.6399H179.64V53.2699C179.64 60.2899 182.27 64.1999 189.49 64.1999C197.2 64.1999 201.39 59.6199 201.39 50.8399V22.6499H215.34V22.6299Z" fill="white"/>
<path d="M274.59 53.06H233.42C234.3 61.64 240.15 65.94 247.37 65.94C252.73 65.94 257.42 63.5 259.27 59.21H273.71C269.71 71.89 258.98 77.45 247.47 77.45C230.69 77.45 219.18 65.55 219.18 49.55C219.18 33.55 230.79 21.45 247.18 21.45C264.93 21.45 275.96 35.4 274.59 53.06ZM234.11 42.82H259.77C258.21 36.97 253.82 32.97 247.09 32.97C240.36 32.97 235.87 37.07 234.12 42.82H234.11Z" fill="white"/>
<path d="M277.58 58.62H291.72C292.79 62.91 296.01 65.84 304.69 65.84C310.84 65.84 313.76 64.38 313.76 61.45C313.76 57.84 309.57 57.55 301.47 55.6C286.25 51.99 280.01 48.58 280.01 39.31C280.01 27.99 289.37 21.46 303.52 21.46C318.44 21.46 325.76 28.68 327.62 38.63H313.47C312.4 35.22 309.47 33.17 303.03 33.17C297.47 33.17 294.05 34.73 294.05 37.66C294.05 40.2 296.49 40.68 304.29 42.44C319.6 45.95 328.19 48.88 328.19 59.61C328.19 71.61 317.56 77.46 304.29 77.46C289.95 77.46 279.51 70.44 277.56 58.63L277.58 58.62Z" fill="white"/>
<path d="M372.75 35.79V22.62H352.85V7.98999L338.9 11.01V22.62H329.34V35.79H338.9V55.6C338.9 71.01 348.26 77.45 358.99 77.45C364.06 77.45 369.25 76 372.65 74.43V61.85C368.26 63.41 364.55 64.48 361.43 64.48C355.87 64.48 352.85 61.16 352.85 54.82V35.79H372.75Z" fill="white"/>
<path d="M392.68 22.43V22.63H410.53V35.8H392.68V76.28H378.73V21.75C378.73 6.43 389.46 0 400.58 0C404.78 0 409.85 0.880002 413.26 2.44L410.72 13.76L408.87 13.27C406.53 12.59 404.19 12.2 402.14 12.2C395.8 12.2 392.68 15.52 392.68 22.44V22.43Z" fill="white"/>
<path d="M466.66 49.45C466.66 65.64 454.37 77.45 438.66 77.45C422.95 77.45 410.76 65.55 410.76 49.45C410.76 33.35 423.25 21.45 438.66 21.45C454.07 21.45 466.66 33.25 466.66 49.45ZM424.81 49.45C424.81 58.33 430.86 64.18 438.66 64.18C446.46 64.18 452.51 58.33 452.51 49.45C452.51 40.57 446.46 34.72 438.66 34.72C430.86 34.72 424.81 40.67 424.81 49.45Z" fill="white"/>
<path d="M504.35 21.6499V35.9899C503.28 35.8899 502.5 35.7899 500.94 35.7899C492.06 35.7899 484.45 39.6899 484.45 52.3699V76.2699H470.5V22.6199H484.45V31.9799C487.77 24.9599 493.62 21.4399 501.23 21.4399C502.5 21.4399 503.47 21.5399 504.35 21.6399V21.6499Z" fill="white"/>
<path d="M591.56 42.33V76.28H577.61V45.36C577.61 38.53 575.07 34.73 568.34 34.73C561.02 34.73 557.22 39.61 557.22 48.1V76.29H543.27V45.37C543.27 38.54 540.73 34.74 534 34.74C526.68 34.74 522.78 39.62 522.78 48.11L522.88 76.3H508.83V22.65H522.88V29.77C526.68 24.41 531.76 21.48 538.78 21.48C546.49 21.48 552.14 25.09 555.07 31.63C558.97 25.29 565.12 21.48 573.02 21.48C584.43 21.48 591.55 29.38 591.55 42.36L591.56 42.33Z" fill="white"/>
<path d="M595.71 58.62H609.86C610.93 62.91 614.15 65.84 622.83 65.84C628.98 65.84 631.9 64.38 631.9 61.45C631.9 57.84 627.7 57.55 619.61 55.6C604.39 51.99 598.15 48.58 598.15 39.31C598.15 27.99 607.51 21.46 621.66 21.46C636.58 21.46 643.9 28.68 645.76 38.63H631.61C630.54 35.22 627.61 33.17 621.17 33.17C615.61 33.17 612.2 34.73 612.2 37.66C612.2 40.2 614.64 40.68 622.44 42.44C637.76 45.95 646.34 48.88 646.34 59.61C646.34 71.61 635.71 77.46 622.44 77.46C608.1 77.46 597.66 70.44 595.71 58.63V58.62Z" fill="white"/>
<path d="M20.44 78.9299L0 43.5299L20.44 8.12988H61.32L79.27 38.3999L69.96 54.5299L51.92 24.3999H29.83L18.78 43.5299L39.48 78.9299H20.44Z" fill="white"/>
<path d="M60.0901 89.8699L31.5601 42.8199L36.03 34.6899H45.6501L69.5 73.5599L60.0901 89.8699Z" fill="white"/>
<path d="M161.15 42.14C161.15 22.03 145.64 6.82007 125.55 6.82007C105.46 6.82007 90.0298 22.04 90.0298 42.14C90.0298 62.24 105.44 77.45 125.55 77.45C129.87 77.45 133.94 76.7501 137.7 75.4601L140.4 74.4001L141.57 76.0001L141.75 76.2501L144.69 80.11L161.15 79.79L151.4 66.8201C157.45 60.5801 161.15 51.9 161.15 42.14ZM138.13 50.04L128.06 57.3801L132.27 63.1901C130.18 63.8301 127.92 64.1801 125.55 64.1801C113.25 64.1801 104.08 54.91 104.08 42.14C104.08 29.37 113.25 20.08 125.55 20.08C137.85 20.08 147.01 29.35 147.01 42.14C147.01 47.44 145.44 52.1401 142.7 55.8201L138.13 50.04Z" fill="white"/>
</svg>
