<svg width="647" height="90" viewBox="0 0 647 90" fill="none" xmlns="http://www.w3.org/2000/svg">
<path d="M140.4 74.4003L135.75 68.0303L140.38 74.4303L141.58 76.0003L140.41 74.4003H140.4Z" fill="black"/>
<path d="M215.34 22.6304V76.2804H201.39V68.8704C197.49 74.3304 192.22 77.4604 184.81 77.4604C173.01 77.4604 165.69 69.3603 165.69 56.2903V22.6404H179.64V53.2704C179.64 60.2904 182.27 64.2003 189.49 64.2003C197.2 64.2003 201.39 59.6204 201.39 50.8404V22.6504H215.34V22.6304Z" fill="black"/>
<path d="M274.59 53.0602H233.42C234.3 61.6402 240.15 65.9402 247.37 65.9402C252.73 65.9402 257.42 63.5002 259.27 59.2102H273.71C269.71 71.8902 258.98 77.4502 247.47 77.4502C230.69 77.4502 219.18 65.5502 219.18 49.5502C219.18 33.5502 230.79 21.4502 247.18 21.4502C264.93 21.4502 275.96 35.4002 274.59 53.0602ZM234.11 42.8202H259.77C258.21 36.9702 253.82 32.9702 247.09 32.9702C240.36 32.9702 235.87 37.0702 234.12 42.8202H234.11Z" fill="black"/>
<path d="M277.58 58.62H291.72C292.79 62.91 296.01 65.84 304.69 65.84C310.84 65.84 313.76 64.38 313.76 61.45C313.76 57.84 309.57 57.55 301.47 55.6C286.25 51.99 280.01 48.58 280.01 39.31C280.01 27.99 289.37 21.46 303.52 21.46C318.44 21.46 325.76 28.68 327.62 38.63H313.47C312.4 35.22 309.47 33.17 303.03 33.17C297.47 33.17 294.05 34.73 294.05 37.66C294.05 40.2 296.49 40.68 304.29 42.44C319.6 45.95 328.19 48.88 328.19 59.61C328.19 71.61 317.56 77.46 304.29 77.46C289.95 77.46 279.51 70.44 277.56 58.63L277.58 58.62Z" fill="black"/>
<path d="M372.75 35.7902V22.6202H352.85V7.99023L338.9 11.0102V22.6202H329.34V35.7902H338.9V55.6003C338.9 71.0103 348.26 77.4502 358.99 77.4502C364.06 77.4502 369.25 76.0002 372.65 74.4302V61.8503C368.26 63.4103 364.55 64.4802 361.43 64.4802C355.87 64.4802 352.85 61.1603 352.85 54.8203V35.7902H372.75Z" fill="black"/>
<path d="M392.68 22.43V22.63H410.53V35.8H392.68V76.28H378.73V21.75C378.73 6.43 389.46 0 400.58 0C404.78 0 409.85 0.880002 413.26 2.44L410.72 13.76L408.87 13.27C406.53 12.59 404.19 12.2 402.14 12.2C395.8 12.2 392.68 15.52 392.68 22.44V22.43Z" fill="black"/>
<path d="M466.66 49.4502C466.66 65.6402 454.37 77.4502 438.66 77.4502C422.95 77.4502 410.76 65.5502 410.76 49.4502C410.76 33.3502 423.25 21.4502 438.66 21.4502C454.07 21.4502 466.66 33.2502 466.66 49.4502ZM424.81 49.4502C424.81 58.3302 430.86 64.1802 438.66 64.1802C446.46 64.1802 452.51 58.3302 452.51 49.4502C452.51 40.5702 446.46 34.7202 438.66 34.7202C430.86 34.7202 424.81 40.6702 424.81 49.4502Z" fill="black"/>
<path d="M504.35 21.6499V35.9899C503.28 35.8899 502.5 35.7899 500.94 35.7899C492.06 35.7899 484.45 39.6899 484.45 52.3699V76.2699H470.5V22.6199H484.45V31.9799C487.77 24.9599 493.62 21.4399 501.23 21.4399C502.5 21.4399 503.47 21.5399 504.35 21.6399V21.6499Z" fill="black"/>
<path d="M591.56 42.33V76.28H577.61V45.36C577.61 38.53 575.07 34.73 568.34 34.73C561.02 34.73 557.22 39.61 557.22 48.1V76.29H543.27V45.37C543.27 38.54 540.73 34.74 534 34.74C526.68 34.74 522.78 39.62 522.78 48.11L522.88 76.3H508.83V22.65H522.88V29.77C526.68 24.41 531.76 21.48 538.78 21.48C546.49 21.48 552.14 25.09 555.07 31.63C558.97 25.29 565.12 21.48 573.02 21.48C584.43 21.48 591.55 29.38 591.55 42.36L591.56 42.33Z" fill="black"/>
<path d="M595.71 58.62H609.86C610.93 62.91 614.15 65.84 622.83 65.84C628.98 65.84 631.9 64.38 631.9 61.45C631.9 57.84 627.7 57.55 619.61 55.6C604.39 51.99 598.15 48.58 598.15 39.31C598.15 27.99 607.51 21.46 621.66 21.46C636.58 21.46 643.9 28.68 645.76 38.63H631.61C630.54 35.22 627.61 33.17 621.17 33.17C615.61 33.17 612.2 34.73 612.2 37.66C612.2 40.2 614.64 40.68 622.44 42.44C637.76 45.95 646.34 48.88 646.34 59.61C646.34 71.61 635.71 77.46 622.44 77.46C608.1 77.46 597.66 70.44 595.71 58.63V58.62Z" fill="black"/>
<path d="M20.44 78.9304L0 43.5304L20.44 8.13037H61.32L79.27 38.4004L69.96 54.5304L51.92 24.4004H29.83L18.78 43.5304L39.48 78.9304H20.44Z" fill="black"/>
<path d="M60.0901 89.8699L31.5601 42.8199L36.03 34.6899H45.6501L69.5 73.5599L60.0901 89.8699Z" fill="black"/>
<path d="M161.15 42.1403C161.15 22.0303 145.64 6.82031 125.55 6.82031C105.46 6.82031 90.0298 22.0403 90.0298 42.1403C90.0298 62.2403 105.44 77.4503 125.55 77.4503C129.87 77.4503 133.94 76.7503 137.7 75.4603L140.4 74.4003L141.57 76.0003L141.75 76.2503L144.69 80.1103L161.15 79.7903L151.4 66.8203C157.45 60.5803 161.15 51.9003 161.15 42.1403ZM138.13 50.0403L128.06 57.3803L132.27 63.1903C130.18 63.8303 127.92 64.1803 125.55 64.1803C113.25 64.1803 104.08 54.9103 104.08 42.1403C104.08 29.3703 113.25 20.0803 125.55 20.0803C137.85 20.0803 147.01 29.3503 147.01 42.1403C147.01 47.4403 145.44 52.1403 142.7 55.8203L138.13 50.0403Z" fill="black"/>
</svg>
